<svg width="34" height="28" viewBox="0 0 34 28" fill="none" xmlns="http://www.w3.org/2000/svg">
<path d="M30.5 20V6.8C30.5 5.11984 30.5 4.27976 30.173 3.63803C29.8854 3.07354 29.4265 2.6146 28.862 2.32698C28.2202 2 27.3802 2 25.7 2H8.3C6.61984 2 5.77976 2 5.13803 2.32698C4.57354 2.6146 4.1146 3.07354 3.82698 3.63803C3.5 4.27976 3.5 5.11984 3.5 6.8V20M6 26H28C28.93 26 29.395 26 29.7765 25.8978C30.8117 25.6204 31.6204 24.8117 31.8978 23.7765C32 23.395 32 22.93 32 22C32 21.535 32 21.3025 31.9489 21.1118C31.8102 20.5941 31.4059 20.1898 30.8882 20.0511C30.6975 20 30.465 20 30 20H4C3.53501 20 3.30252 20 3.11177 20.0511C2.59413 20.1898 2.18981 20.5941 2.05111 21.1118C2 21.3025 2 21.535 2 22C2 22.93 2 23.395 2.10222 23.7765C2.37962 24.8117 3.18827 25.6204 4.22354 25.8978C4.60504 26 5.07003 26 6 26Z" stroke="#9774DC" stroke-width="3" stroke-linecap="round" stroke-linejoin="round"/>
</svg>
