<svg width="36" height="36" viewBox="0 0 36 36" fill="none" xmlns="http://www.w3.org/2000/svg">
<path d="M35.9019 10.4075C35.677 9.90142 35.2834 9.45157 34.7773 9.17042L23.6435 3.60352C23.0812 4.39075 22.0128 6.47131 18.0204 6.47131C13.9155 6.47131 12.8471 4.33452 12.341 3.60352L1.20718 9.17042C0.701102 9.45157 0.307483 9.90142 0.138789 10.4075C-0.0861363 10.9698 -0.029905 11.5884 0.251252 12.0944L3.23151 18.055C3.73759 19.1796 5.08715 19.5732 6.09931 19.0671L7.44886 18.4486C7.78625 18.2799 8.12364 18.5048 8.12364 18.8422V29.245C8.12364 30.9882 9.52942 32.394 11.2726 32.394H24.7681C26.5113 32.394 27.9171 30.9882 27.9171 29.245V18.8422C27.9171 18.5048 28.2545 18.2799 28.5356 18.4486L29.8852 19.0671C30.9536 19.6294 32.2469 19.1796 32.8092 18.1112L35.7895 12.0944C36.0144 11.5884 36.0706 10.9698 35.9019 10.4075ZM30.6162 16.4243L26.455 14.4562C25.8927 14.175 25.218 14.6249 25.218 15.2996V29.245C25.218 29.5262 24.993 29.6949 24.7681 29.6949H11.2726C10.9914 29.6949 10.8227 29.5262 10.8227 29.245V15.2996C10.8227 14.6249 10.0917 14.175 9.52942 14.4562L5.42453 16.4243L2.89412 11.3634L11.61 7.03363C13.1282 8.38318 15.4337 9.17042 18.0204 9.17042C20.5508 9.17042 22.8562 8.38318 24.3745 7.03363L33.0903 11.3634L30.6162 16.4243Z" fill="#9774DC"/>
</svg>
